<svg width="48" height="48" viewBox="0 0 48 48" fill="none" xmlns="http://www.w3.org/2000/svg">
<rect width="48" height="48" fill="#323238"/>
<g clip-path="url(#clip0_61385_209)">
<path fill-rule="evenodd" clip-rule="evenodd" d="M13.62 12.0177C13.5804 12.0235 13.5399 12.0425 13.53 12.0599C13.5201 12.0775 13.485 12.0888 13.452 12.0852C13.419 12.0815 13.392 12.0879 13.392 12.0993C13.392 12.1107 13.3596 12.12 13.32 12.12C13.2751 12.12 13.2502 12.1313 13.254 12.15C13.2573 12.1665 13.2431 12.1773 13.2225 12.174C13.2019 12.1707 13.1619 12.1896 13.1335 12.216C13.1052 12.2424 13.0626 12.2642 13.039 12.2644C13.0041 12.2647 13.0024 12.2689 13.0302 12.2864C13.0557 12.3025 13.0466 12.31 12.9942 12.316C12.9552 12.3205 12.9265 12.337 12.9297 12.3532C12.9331 12.3705 12.9202 12.3764 12.8979 12.3679C12.8709 12.3575 12.8625 12.366 12.8682 12.3982C12.8724 12.4228 12.8625 12.4445 12.846 12.4465C12.8295 12.4484 12.7998 12.4513 12.78 12.453C12.7602 12.4547 12.744 12.4675 12.744 12.4814C12.744 12.4954 12.7548 12.5002 12.768 12.492C12.807 12.4679 12.7953 12.4954 12.7513 12.5311C12.7237 12.5534 12.7165 12.5544 12.7288 12.534C12.7387 12.5175 12.7408 12.504 12.7334 12.504C12.7167 12.504 12.624 12.5956 12.624 12.612C12.624 12.6186 12.6186 12.624 12.612 12.624C12.5955 12.624 12.504 12.7168 12.504 12.7334C12.504 12.7408 12.5175 12.7387 12.534 12.7288C12.5544 12.7166 12.5534 12.7238 12.531 12.7514C12.4954 12.7954 12.4678 12.8071 12.492 12.768C12.5001 12.7548 12.4954 12.744 12.4814 12.744C12.4674 12.744 12.4546 12.7602 12.453 12.78C12.4513 12.7998 12.4483 12.8295 12.4464 12.846C12.4445 12.8625 12.4228 12.8725 12.3982 12.8682C12.366 12.8626 12.3575 12.8709 12.3678 12.8979C12.3764 12.9203 12.3705 12.9331 12.3531 12.9297C12.3369 12.9265 12.3204 12.9552 12.316 12.9942C12.31 13.0466 12.3025 13.0557 12.2863 13.0302C12.2688 13.0025 12.2646 13.0042 12.2643 13.039C12.2641 13.0627 12.2424 13.1052 12.216 13.1335C12.1896 13.1619 12.1707 13.2019 12.174 13.2226C12.1773 13.2431 12.1665 13.2573 12.15 13.254C12.1313 13.2503 12.12 13.2752 12.12 13.32C12.12 13.3596 12.1107 13.392 12.0993 13.392C12.0879 13.392 12.0815 13.419 12.0852 13.452C12.0888 13.485 12.0781 13.5201 12.0614 13.53C12.0447 13.5399 12.0238 13.5947 12.015 13.6517C12.0043 13.7202 12.0072 13.7504 12.0234 13.7404C12.0549 13.7209 12.0555 13.7589 12.0241 13.7903C12.0055 13.8088 12.0006 34.0022 12.0191 34.224C12.0207 34.2438 12.0214 34.2857 12.0207 34.3171C12.0199 34.3486 12.0324 34.3823 12.0483 34.3922C12.0704 34.4059 12.0696 34.4134 12.0447 34.4237C12.0184 34.4345 12.0196 34.4421 12.0507 34.462C12.072 34.4756 12.0879 34.5113 12.086 34.5414C12.0841 34.5714 12.0915 34.6024 12.1024 34.6102C12.1134 34.618 12.124 34.6469 12.1261 34.6745C12.1282 34.7021 12.1385 34.7194 12.1489 34.7129C12.1594 34.7065 12.168 34.7132 12.168 34.728C12.168 34.7428 12.1776 34.7489 12.1894 34.7416C12.2013 34.7342 12.217 34.7441 12.2244 34.7633C12.2318 34.7827 12.2259 34.8059 12.2112 34.8149C12.1939 34.8256 12.1914 34.8203 12.204 34.8C12.2178 34.7777 12.2141 34.7743 12.1914 34.7884C12.1672 34.8033 12.1779 34.8235 12.2354 34.8716C12.294 34.9205 12.3049 34.9415 12.2829 34.9635C12.2608 34.9855 12.2632 34.992 12.2932 34.992C12.3172 34.992 12.3384 35.0205 12.3484 35.0662C12.3609 35.1227 12.3752 35.1376 12.4086 35.1289C12.4363 35.1217 12.4483 35.1281 12.4412 35.1466C12.435 35.1626 12.4547 35.1877 12.4849 35.2022C12.5305 35.2242 12.5325 35.2291 12.4962 35.2304C12.4565 35.2319 12.456 35.2354 12.4902 35.2697C12.511 35.2904 12.528 35.3181 12.528 35.3311C12.528 35.3441 12.5388 35.3482 12.552 35.34C12.5652 35.3318 12.576 35.3378 12.576 35.3531C12.576 35.3686 12.5916 35.3752 12.6108 35.3678C12.6341 35.3588 12.6411 35.366 12.6321 35.3895C12.6112 35.444 12.6723 35.5011 12.7347 35.4854C12.7646 35.4779 12.7956 35.4826 12.8037 35.4956C12.8122 35.5093 12.8026 35.5134 12.7812 35.5052C12.7607 35.4973 12.744 35.5016 12.744 35.5147C12.744 35.5369 12.831 35.576 12.8691 35.5709C12.8785 35.5696 12.8793 35.5865 12.8709 35.6084C12.8595 35.6383 12.8655 35.6446 12.8949 35.6333C12.9207 35.6234 12.9522 35.6405 12.9864 35.6831C13.0177 35.7222 13.0426 35.7366 13.0488 35.7194C13.0549 35.7021 13.0878 35.7212 13.1312 35.7674C13.1775 35.8165 13.2078 35.8334 13.2154 35.8147C13.2249 35.7916 13.2342 35.7916 13.2592 35.8147C13.2766 35.8308 13.286 35.8521 13.28 35.862C13.2741 35.8719 13.2967 35.88 13.3305 35.88C13.3643 35.88 13.392 35.8898 13.392 35.9019C13.392 35.9139 13.4193 35.9208 13.4526 35.9171C13.4889 35.9131 13.5219 35.926 13.5349 35.9492C13.56 35.9941 34.0881 36.023 34.1718 35.9783C34.1975 35.9645 34.2291 35.965 34.2552 35.9796C34.2859 35.9968 34.3181 35.9905 34.3746 35.9564C34.4172 35.9308 34.4709 35.9129 34.494 35.9168C34.5171 35.9206 34.536 35.9153 34.536 35.9049C34.536 35.8945 34.563 35.8844 34.596 35.8825C34.716 35.8755 34.728 35.8714 34.728 35.8372C34.728 35.8147 34.7442 35.8067 34.7743 35.8145C34.8008 35.8214 34.8415 35.8072 34.8693 35.7813C34.8961 35.7564 34.9335 35.736 34.9524 35.736C34.9713 35.736 34.9933 35.7191 35.0012 35.6985C35.0091 35.6779 35.025 35.6667 35.0364 35.6738C35.0572 35.6867 35.0731 35.6726 35.2092 35.52C35.2503 35.4738 35.2771 35.4495 35.2686 35.466C35.2366 35.5281 35.3074 35.4925 35.4 35.4C35.4925 35.3075 35.5281 35.2366 35.466 35.2686C35.4495 35.2771 35.4738 35.2504 35.52 35.2092C35.6725 35.0732 35.6866 35.0573 35.6737 35.0364C35.6667 35.025 35.6778 35.0092 35.6985 35.0012C35.7191 34.9933 35.736 34.9714 35.736 34.9524C35.736 34.9335 35.7564 34.8961 35.7813 34.8694C35.8072 34.8416 35.8214 34.8008 35.8145 34.7743C35.8066 34.7443 35.8146 34.728 35.8372 34.728C35.8714 34.728 35.8755 34.7161 35.8825 34.596C35.8844 34.563 35.8945 34.536 35.9049 34.536C35.9152 34.536 35.9206 34.5171 35.9167 34.494C35.9128 34.4709 35.9307 34.4173 35.9562 34.375C35.9902 34.3186 35.9964 34.2862 35.9794 34.2544C35.9649 34.2273 35.9644 34.1957 35.9782 34.1711C36.0229 34.0912 35.9941 13.5601 35.9492 13.5349C35.926 13.5219 35.9131 13.489 35.9171 13.4526C35.9208 13.4193 35.9139 13.392 35.9019 13.392C35.8898 13.392 35.88 13.3643 35.88 13.3306C35.88 13.2968 35.8719 13.2741 35.862 13.28C35.8521 13.286 35.8308 13.2767 35.8147 13.2592C35.7916 13.2343 35.7916 13.225 35.8147 13.2155C35.8334 13.2078 35.8164 13.1775 35.7673 13.1312C35.7211 13.0878 35.7021 13.055 35.7193 13.0488C35.7366 13.0426 35.7222 13.0178 35.683 12.9864C35.6405 12.9522 35.6233 12.9207 35.6332 12.895C35.6445 12.8655 35.6383 12.8595 35.6084 12.871C35.5865 12.8794 35.5696 12.8786 35.5708 12.8692C35.5759 12.8311 35.5368 12.744 35.5146 12.744C35.5015 12.744 35.4973 12.7607 35.5051 12.7813C35.5134 12.8027 35.5093 12.8122 35.4956 12.8038C35.4825 12.7957 35.4779 12.7646 35.4854 12.7348C35.5011 12.6724 35.4439 12.6112 35.3895 12.6321C35.3659 12.6411 35.3588 12.6341 35.3677 12.6108C35.3751 12.5917 35.3685 12.576 35.3531 12.576C35.3377 12.576 35.3318 12.5652 35.34 12.552C35.3481 12.5388 35.3441 12.528 35.3311 12.528C35.3181 12.528 35.2904 12.511 35.2697 12.4903C35.2354 12.456 35.2318 12.4565 35.2303 12.4963C35.229 12.5325 35.2242 12.5305 35.2022 12.485C35.1877 12.4547 35.1626 12.4351 35.1466 12.4412C35.1281 12.4483 35.1216 12.4363 35.1289 12.4086C35.1376 12.3752 35.1226 12.3609 35.0661 12.3485C35.0205 12.3385 34.992 12.3172 34.992 12.2933C34.992 12.2633 34.9855 12.2609 34.9635 12.2829C34.9414 12.3049 34.9205 12.2941 34.8715 12.2354C34.8235 12.1779 34.8033 12.1672 34.7883 12.1914C34.7743 12.2141 34.7777 12.2178 34.8 12.204C34.8203 12.1914 34.8256 12.194 34.8149 12.2113C34.8058 12.2259 34.7826 12.2318 34.7633 12.2245C34.744 12.217 34.7342 12.2013 34.7415 12.1895C34.7488 12.1777 34.7427 12.168 34.728 12.168C34.7132 12.168 34.7064 12.1594 34.7129 12.149C34.7193 12.1385 34.702 12.1283 34.6744 12.1262C34.6468 12.1241 34.6179 12.1135 34.6101 12.1025C34.6023 12.0916 34.5714 12.0842 34.5414 12.086C34.5113 12.088 34.4764 12.0721 34.4638 12.0508C34.4449 12.0188 34.437 12.0178 34.4193 12.0447C34.4034 12.0688 34.3953 12.0698 34.3881 12.0485C34.3828 12.0326 34.3518 12.0202 34.3192 12.0208C34.2866 12.0215 34.2438 12.0208 34.224 12.0191C34.0022 12.0006 13.8088 12.0056 13.7902 12.0241C13.7592 12.0552 13.7208 12.0551 13.74 12.024C13.755 11.9996 13.747 11.9992 13.62 12.0177ZM17.838 14.7103C17.8347 14.7244 17.8428 14.736 17.856 14.736C17.8692 14.736 17.8808 14.7225 17.8819 14.706C17.8834 14.682 17.8862 14.682 17.8959 14.706C17.9025 14.7225 17.9341 14.736 17.9659 14.736C17.9979 14.736 18.024 14.7468 18.024 14.76C18.024 14.7732 18.0672 14.784 18.12 14.784C18.1728 14.784 18.216 14.7948 18.216 14.808C18.216 14.8212 18.2376 14.832 18.264 14.832C18.2904 14.832 18.312 14.8442 18.312 14.859C18.312 14.8762 18.3381 14.8808 18.384 14.8716C18.4236 14.8637 18.456 14.8665 18.456 14.8778C18.456 14.923 18.5807 14.9831 18.6026 14.9485C18.6188 14.923 18.6233 14.9247 18.6236 14.9566C18.624 15.0017 18.6665 15.0374 18.6909 15.0131C18.6995 15.0044 18.6907 14.9873 18.6712 14.975C18.6519 14.9628 18.6478 14.9525 18.6622 14.9524C18.6767 14.9522 18.7091 14.9755 18.7342 15.0041C18.7594 15.0328 18.7665 15.0484 18.75 15.0387C18.7335 15.029 18.72 15.0314 18.72 15.0439C18.72 15.0563 18.7584 15.0848 18.8054 15.1071C18.8524 15.1294 18.8969 15.1633 18.9043 15.1825C18.9123 15.2036 18.935 15.2119 18.9613 15.2036C18.9909 15.1942 19.0142 15.2068 19.0333 15.2424C19.0921 15.3524 19.3477 15.5715 19.3998 15.5565C19.4106 15.5534 19.4131 15.5611 19.4053 15.5737C19.3975 15.5864 19.4022 15.6035 19.4155 15.6118C19.429 15.62 19.44 15.6478 19.44 15.6734C19.44 15.7056 19.4566 15.7201 19.494 15.7204C19.5376 15.7207 19.5411 15.7252 19.512 15.744C19.488 15.7595 19.486 15.7674 19.506 15.7676C19.5225 15.7678 19.5347 15.7761 19.5331 15.786C19.5254 15.8349 19.5393 15.864 19.5703 15.864C19.5892 15.864 19.6116 15.8858 19.6201 15.9124C19.6285 15.9389 19.6442 15.9553 19.6549 15.9486C19.6657 15.942 19.6803 15.9586 19.6873 15.9856C19.698 16.0262 19.6942 16.0298 19.6655 16.006C19.6368 15.9821 19.6338 15.985 19.6481 16.0226C19.6881 16.1281 19.8045 16.33 19.8404 16.3562C19.8712 16.3789 19.8728 16.3886 19.8479 16.4041C19.8272 16.4168 19.8223 16.414 19.8337 16.3957C19.8431 16.3805 19.8394 16.368 19.8254 16.368C19.7867 16.368 19.7949 16.4015 19.8472 16.4577C19.8811 16.4941 19.8862 16.5124 19.8652 16.5223C19.8424 16.5329 19.8426 16.5391 19.866 16.55C19.8825 16.5577 19.896 16.5955 19.896 16.634C19.896 16.673 19.9093 16.7048 19.926 16.7059C19.95 16.7074 19.95 16.7102 19.926 16.7199C19.9095 16.7266 19.896 16.7479 19.896 16.7674C19.896 16.7869 19.9068 16.7962 19.92 16.788C19.9452 16.7725 19.9518 16.8085 19.9476 16.938C19.9461 16.9848 19.9568 17.0161 19.9745 17.0164C19.9965 17.0167 19.996 17.0218 19.9728 17.0365C19.948 17.0522 19.9492 17.0624 19.9788 17.087C19.9992 17.104 20.016 17.1287 20.016 17.1419C20.016 17.1564 20.0032 17.1553 19.9835 17.1389C19.9566 17.1166 19.9515 17.1542 19.9535 17.3609C19.9554 17.5559 19.9492 17.6073 19.9248 17.5979C19.9019 17.5892 19.8952 17.6117 19.8994 17.683C19.9026 17.7383 19.8909 17.7973 19.872 17.82C19.845 17.8525 19.8444 17.8688 19.8692 17.9084C19.8906 17.9428 19.8912 17.9519 19.8712 17.9395C19.8511 17.9272 19.8471 17.9387 19.8571 17.979C19.8651 18.0103 19.8653 18.0225 19.8577 18.006C19.8347 17.9559 19.8108 17.9723 19.805 18.042C19.802 18.0783 19.7889 18.1116 19.7758 18.116C19.7626 18.1204 19.752 18.1507 19.752 18.1834C19.752 18.2169 19.7415 18.2363 19.728 18.228C19.7148 18.2198 19.704 18.2348 19.704 18.2612C19.704 18.2876 19.6932 18.3158 19.68 18.324C19.6668 18.3322 19.656 18.3598 19.656 18.3854C19.656 18.4111 19.6447 18.432 19.6309 18.432C19.6171 18.432 19.609 18.4509 19.6129 18.474C19.617 18.4987 19.6068 18.5133 19.5882 18.5094C19.5707 18.5058 19.5633 18.5139 19.5716 18.5274C19.5799 18.541 19.5741 18.552 19.5585 18.552C19.5373 18.552 19.5377 18.5612 19.56 18.588C19.5822 18.6148 19.5826 18.624 19.5615 18.624C19.5459 18.624 19.5393 18.6341 19.5469 18.6463C19.5545 18.6586 19.5481 18.6765 19.5327 18.686C19.5151 18.6969 19.511 18.693 19.5217 18.6757C19.5311 18.6605 19.5274 18.648 19.5134 18.648C19.4994 18.648 19.488 18.6595 19.488 18.6734C19.488 18.6874 19.4772 18.6922 19.464 18.684C19.4508 18.6758 19.44 18.686 19.44 18.7066C19.44 18.7271 19.4292 18.744 19.416 18.744C19.4028 18.744 19.392 18.7674 19.392 18.796C19.392 18.8246 19.3853 18.8413 19.3771 18.8332C19.353 18.809 19.2913 18.885 19.3101 18.9155C19.3209 18.9329 19.3169 18.937 19.2995 18.9262C19.2839 18.9166 19.2653 18.9254 19.2573 18.9463C19.2494 18.9669 19.2355 18.9791 19.2265 18.9736C19.2175 18.968 19.1951 18.9974 19.1767 19.0389C19.1584 19.0804 19.1389 19.1009 19.1334 19.0844C19.1273 19.066 19.096 19.0846 19.0513 19.1333C19.0116 19.1766 18.9868 19.1977 18.9961 19.1802C19.0101 19.1539 19.0042 19.1539 18.9615 19.1802C18.9304 19.1994 18.9142 19.2287 18.9207 19.254C18.9266 19.2771 18.9217 19.296 18.9097 19.296C18.8977 19.296 18.8871 19.2825 18.886 19.266C18.8845 19.242 18.8817 19.242 18.8721 19.266C18.8654 19.2825 18.8455 19.296 18.8278 19.296C18.8101 19.296 18.7637 19.3279 18.7246 19.367C18.6856 19.406 18.6092 19.4519 18.5548 19.4689C18.5004 19.4858 18.456 19.5079 18.456 19.5178C18.456 19.5278 18.4263 19.5362 18.39 19.5364C18.3368 19.5367 18.331 19.5417 18.36 19.5622C18.3868 19.5812 18.3738 19.5839 18.3083 19.5731C18.2473 19.5631 18.2099 19.5695 18.1852 19.5942C18.1657 19.6138 18.1435 19.6235 18.1359 19.616C18.1156 19.5957 17.996 19.6302 18.0097 19.6523C18.0162 19.6628 17.9897 19.6667 17.951 19.661C17.9122 19.6553 17.8615 19.6589 17.8383 19.6691C17.815 19.6793 17.7825 19.6854 17.766 19.6828C17.7495 19.6801 17.736 19.6877 17.736 19.6997C17.736 19.7119 17.6416 19.7164 17.5196 19.7098C17.316 19.6988 17.3041 19.7008 17.3188 19.7431C17.3331 19.7843 17.331 19.784 17.2934 19.74C17.2708 19.7136 17.2602 19.7082 17.2697 19.728C17.2837 19.7572 17.2809 19.7584 17.2547 19.734C17.2189 19.7008 17.15 19.6925 17.1693 19.7237C17.176 19.7345 17.1496 19.7386 17.1107 19.7329C17.0718 19.7272 17.04 19.7128 17.04 19.7008C17.04 19.6889 17.0686 19.6862 17.1036 19.6951C17.1477 19.7061 17.162 19.7027 17.1504 19.684C17.1406 19.6681 17.0847 19.66 17.0148 19.6642C16.9239 19.6698 16.896 19.6633 16.896 19.6368C16.896 19.6097 16.8886 19.6082 16.8621 19.6302C16.8373 19.6508 16.8238 19.6511 16.8117 19.6315C16.8025 19.6168 16.7808 19.6102 16.7633 19.6169C16.7458 19.6237 16.7198 19.6151 16.7055 19.5979C16.6912 19.5807 16.6527 19.5696 16.6198 19.5732C16.5869 19.5768 16.56 19.5699 16.56 19.5579C16.56 19.5458 16.5438 19.536 16.524 19.536C16.5042 19.536 16.488 19.5252 16.488 19.512C16.488 19.4988 16.4716 19.488 16.4517 19.488C16.4116 19.488 16.3165 19.4397 16.293 19.4074C16.2847 19.3961 16.2706 19.3988 16.2615 19.4134C16.2525 19.4281 16.2343 19.44 16.2211 19.44C16.2079 19.44 16.2034 19.4299 16.2111 19.4174C16.226 19.3933 16.134 19.296 16.0962 19.296C16.0838 19.296 16.0536 19.273 16.0291 19.2448C15.9925 19.2025 15.9783 19.1988 15.9483 19.2237C15.9183 19.2486 15.912 19.2469 15.912 19.214C15.912 19.1671 15.6075 18.864 15.5602 18.864C15.5425 18.864 15.5277 18.8451 15.5273 18.822C15.5269 18.7989 15.4936 18.7422 15.4533 18.696C15.4129 18.6498 15.3883 18.6282 15.3985 18.648C15.4143 18.6785 15.4112 18.6791 15.3783 18.6524C15.3568 18.6351 15.3431 18.6011 15.3478 18.577C15.3524 18.5528 15.3382 18.5127 15.3161 18.4878C15.259 18.4235 15.1857 18.288 15.2079 18.288C15.2182 18.288 15.2026 18.2712 15.1733 18.2506C15.136 18.2245 15.12 18.1888 15.12 18.1321C15.12 18.0874 15.1092 18.0442 15.096 18.036C15.0828 18.0278 15.072 18.001 15.072 17.9763C15.072 17.9516 15.0573 17.9168 15.0394 17.8988C15.0196 17.8791 15.0112 17.8359 15.0181 17.7891C15.0249 17.7428 15.019 17.712 15.0034 17.712C14.9892 17.712 14.9835 17.7309 14.991 17.754C15.0017 17.7872 14.9995 17.789 14.9805 17.7622C14.9672 17.7436 14.9626 17.7121 14.9703 17.6923C14.9803 17.6659 14.9748 17.6617 14.95 17.6767C14.9215 17.6938 14.9211 17.6909 14.9471 17.6588C14.9798 17.6184 14.9772 17.5312 14.9416 17.4743C14.9259 17.4491 14.9291 17.4458 14.9542 17.4609C14.9813 17.4772 14.9824 17.4743 14.9597 17.4462C14.9182 17.3948 14.909 17.0186 14.9487 16.994C14.9695 16.9811 14.9776 16.9322 14.9731 16.847C14.9686 16.7636 14.9763 16.7159 14.9952 16.7096C15.011 16.7043 15.024 16.6733 15.024 16.6406C15.024 16.6079 15.015 16.5867 15.004 16.5935C14.9929 16.6003 14.9839 16.5907 14.9839 16.572C14.9839 16.5533 14.9902 16.5419 14.998 16.5466C15.0261 16.5635 15.064 16.4968 15.0613 16.435C15.0598 16.4001 15.0697 16.3735 15.0832 16.3757C15.097 16.3781 15.108 16.3344 15.108 16.2769C15.108 16.1894 15.1163 16.1718 15.1631 16.16C15.1934 16.1525 15.2126 16.1406 15.2057 16.1338C15.1932 16.1212 15.2619 15.9827 15.292 15.9598C15.3009 15.953 15.3117 15.9314 15.316 15.9118C15.3204 15.8921 15.3445 15.8571 15.3696 15.834C15.3948 15.8109 15.4069 15.792 15.3967 15.792C15.3865 15.792 15.3901 15.7775 15.4048 15.7598C15.4195 15.7421 15.4236 15.7187 15.4138 15.7079C15.4039 15.6971 15.4087 15.6956 15.4242 15.7045C15.4542 15.7217 15.4866 15.6525 15.4748 15.5965C15.471 15.5786 15.4815 15.5667 15.498 15.57C15.5145 15.5733 15.528 15.5652 15.528 15.552C15.528 15.5388 15.5483 15.528 15.5732 15.528C15.6013 15.528 15.6335 15.4964 15.6579 15.445C15.6795 15.3994 15.7094 15.3545 15.7243 15.3453C15.7408 15.3351 15.7447 15.3394 15.7342 15.3563C15.7248 15.3715 15.7285 15.384 15.7425 15.384C15.7565 15.384 15.768 15.3671 15.768 15.3466C15.768 15.326 15.7774 15.315 15.7888 15.3221C15.8191 15.3407 15.9193 15.2473 15.9009 15.2176C15.8913 15.202 15.901 15.1985 15.9267 15.2084C15.9546 15.2191 15.9622 15.2151 15.9505 15.1961C15.9409 15.1807 15.9452 15.168 15.96 15.168C15.975 15.168 15.9789 15.1549 15.9688 15.138C15.9544 15.1141 15.9582 15.1141 15.9873 15.1376C16.0168 15.1615 16.0326 15.159 16.0699 15.1244C16.0953 15.1008 16.135 15.0743 16.1582 15.0655C16.1814 15.0566 16.1976 15.0369 16.1942 15.0217C16.1908 15.0065 16.2042 14.9891 16.224 14.9832C16.2559 14.9735 16.2559 14.9752 16.224 14.9978C16.1631 15.0409 16.2177 15.0267 16.308 14.976C16.3549 14.9496 16.4099 14.928 16.4301 14.928C16.4503 14.928 16.4601 14.9172 16.452 14.904C16.4438 14.8908 16.4601 14.88 16.4883 14.88C16.5164 14.88 16.5562 14.8632 16.5768 14.8426C16.5973 14.822 16.6308 14.8116 16.6512 14.8195C16.6715 14.8273 16.6961 14.8207 16.7059 14.8048C16.7157 14.789 16.7625 14.7775 16.8098 14.7793C16.8634 14.7813 16.896 14.7715 16.896 14.7533C16.896 14.7331 16.9348 14.7262 17.022 14.7312C17.1081 14.7361 17.1372 14.7311 17.1141 14.7154C17.0646 14.6818 17.1402 14.6753 17.52 14.6803C17.7358 14.6832 17.842 14.6932 17.838 14.7103ZM28.6664 20.6665C28.6488 20.695 28.7615 20.6818 28.7816 20.6531C28.7934 20.6363 28.7994 20.6372 28.7996 20.6559C28.8 20.686 28.8418 20.686 28.89 20.6559C28.9069 20.6453 28.92 20.6483 28.92 20.6626C28.92 20.6767 28.9571 20.6853 29.0039 20.682C29.0501 20.6787 29.0879 20.6675 29.0879 20.6572C29.088 20.6468 29.1089 20.6495 29.1345 20.6632C29.1672 20.6807 29.1859 20.6803 29.1972 20.662C29.2089 20.6431 29.2207 20.6431 29.2395 20.6619C29.2538 20.6762 29.3444 20.688 29.4408 20.688C29.5371 20.688 29.616 20.6975 29.616 20.7091C29.616 20.7206 29.6902 20.7287 29.7809 20.7271C29.9062 20.7247 29.943 20.7314 29.934 20.7548C29.9251 20.7781 29.9551 20.7838 30.0576 20.7781C30.1468 20.7732 30.1896 20.7794 30.1831 20.7964C30.1777 20.8106 30.1939 20.8237 30.2191 20.8256C30.2443 20.8276 30.2592 20.8197 30.2521 20.8082C30.245 20.7967 30.2518 20.7795 30.2673 20.77C30.2854 20.7587 30.2889 20.763 30.2773 20.7819C30.2657 20.8006 30.2775 20.816 30.3096 20.8244C30.3373 20.8316 30.36 20.8471 30.36 20.8588C30.36 20.8705 30.3924 20.88 30.432 20.88C30.4716 20.88 30.504 20.8908 30.504 20.904C30.504 20.9172 30.5364 20.928 30.576 20.928C30.6156 20.928 30.648 20.9388 30.648 20.952C30.648 20.9652 30.6864 20.976 30.7334 20.976C30.7842 20.976 30.8128 20.9857 30.804 21C30.7953 21.014 30.8202 21.024 30.864 21.024C30.9145 21.024 30.9332 21.033 30.9216 21.0518C30.9099 21.0708 30.9207 21.0753 30.9562 21.066C30.9925 21.0565 31.008 21.0634 31.008 21.089C31.008 21.1149 31.0252 21.1223 31.0668 21.1144C31.1006 21.1079 31.1235 21.1139 31.1208 21.1285C31.1181 21.1424 31.1299 21.1543 31.1469 21.1549C31.1638 21.1555 31.1859 21.1693 31.196 21.1856C31.206 21.2018 31.2378 21.2106 31.2666 21.205C31.2954 21.1995 31.3263 21.2068 31.3351 21.2212C31.3449 21.2369 31.3403 21.2405 31.3237 21.2303C31.3084 21.2209 31.296 21.222 31.296 21.2328C31.296 21.2631 31.391 21.3154 31.4169 21.2994C31.4296 21.2916 31.44 21.3032 31.44 21.3251C31.44 21.3514 31.4527 21.3602 31.4772 21.3508C31.5015 21.3415 31.5085 21.3462 31.4973 21.3644C31.4854 21.3836 31.494 21.3868 31.5253 21.3748C31.5502 21.3653 31.563 21.365 31.5538 21.3741C31.5447 21.3833 31.572 21.4214 31.6146 21.459C31.6961 21.5309 31.7413 21.5484 31.7153 21.498C31.7068 21.4815 31.7221 21.495 31.7493 21.528C31.7766 21.561 31.7991 21.5968 31.7994 21.6074C31.7997 21.6181 31.8086 21.6215 31.8191 21.615C31.8297 21.6085 31.854 21.6131 31.8731 21.6252C31.8996 21.6419 31.9003 21.6473 31.8762 21.6476C31.8518 21.6479 31.8528 21.6562 31.8805 21.6839C31.9002 21.7037 31.9307 21.7163 31.9482 21.7118C31.9657 21.7075 31.9722 21.7082 31.9628 21.7136C31.9345 21.7298 32.0005 21.816 32.0412 21.816C32.0851 21.816 32.1858 21.8861 32.1434 21.8872C32.1277 21.8876 32.1081 21.8772 32.1 21.864C32.0918 21.8508 32.0759 21.84 32.0646 21.84C32.0533 21.84 32.0782 21.8762 32.12 21.9204C32.1618 21.9646 32.2041 21.9964 32.214 21.991C32.2239 21.9856 32.232 21.998 32.232 22.0186C32.232 22.0391 32.2428 22.056 32.256 22.056C32.2692 22.056 32.28 22.0713 32.28 22.09C32.28 22.1086 32.3124 22.1545 32.352 22.1919C32.3916 22.2293 32.424 22.2747 32.424 22.2929C32.424 22.318 32.4318 22.3194 32.4567 22.2987C32.4832 22.2767 32.4871 22.2835 32.4772 22.3354C32.4688 22.3794 32.4735 22.3939 32.4925 22.3822C32.5105 22.371 32.52 22.3871 32.52 22.4288C32.52 22.4716 32.5352 22.4965 32.5663 22.5046C32.5918 22.5113 32.6187 22.5324 32.626 22.5516C32.6334 22.5708 32.6292 22.5802 32.6167 22.5725C32.6042 22.5647 32.6244 22.6155 32.6614 22.6852C32.699 22.7558 32.7429 22.8088 32.7605 22.8046C32.7852 22.7989 32.7846 22.8064 32.758 22.8385C32.7317 22.8704 32.7308 22.8821 32.754 22.8899C32.7705 22.8955 32.784 22.9207 32.784 22.946C32.784 22.9713 32.794 22.992 32.8063 22.992C32.8186 22.992 32.8356 23.0138 32.8441 23.0404C32.8525 23.0669 32.8695 23.0825 32.8817 23.0749C32.8939 23.0674 32.904 23.0786 32.904 23.1C32.904 23.1232 32.9151 23.132 32.9317 23.1217C32.949 23.111 32.9529 23.1151 32.942 23.1327C32.9325 23.1481 32.9146 23.1545 32.9023 23.147C32.8624 23.1223 32.8788 23.2012 32.9206 23.2351C32.9482 23.2574 32.9554 23.2584 32.9431 23.238C32.9332 23.2215 32.9365 23.208 32.9505 23.208C32.9847 23.208 32.9826 23.2393 32.946 23.2782C32.922 23.3036 32.922 23.3122 32.946 23.321C32.9625 23.327 32.9762 23.3608 32.9765 23.396C32.9768 23.4312 32.9982 23.487 33.024 23.52C33.0498 23.553 33.0711 23.6097 33.0714 23.646C33.0717 23.6823 33.0855 23.7122 33.102 23.7124C33.1223 23.7126 33.1206 23.7199 33.0967 23.735C33.0772 23.7473 33.0664 23.7616 33.0727 23.7667C33.0789 23.7718 33.1107 23.794 33.1433 23.816C33.1966 23.8519 33.1978 23.8561 33.1553 23.8568C33.1084 23.8575 33.1084 23.8579 33.156 23.896C33.195 23.9272 33.1961 23.9317 33.162 23.92C33.1162 23.9042 33.1062 23.9286 33.1432 23.9656C33.1559 23.9783 33.1689 24.023 33.1721 24.0647C33.1753 24.1065 33.1865 24.1354 33.1969 24.1289C33.2154 24.1175 33.228 24.2275 33.2193 24.3223C33.2169 24.3478 33.2269 24.376 33.2415 24.385C33.256 24.394 33.268 24.4515 33.268 24.5128C33.268 24.5743 33.2778 24.6182 33.2899 24.6107C33.309 24.599 33.3265 24.8609 33.313 24.9572C33.3104 24.976 33.3223 24.9852 33.3402 24.9783C33.3653 24.9686 33.3711 25.0118 33.3678 25.1848C33.3655 25.3051 33.3726 25.409 33.3834 25.4158C33.3942 25.4225 33.4062 25.5036 33.4101 25.596C33.414 25.6884 33.4286 25.7796 33.4426 25.7986C33.4579 25.8196 33.4584 25.8275 33.4438 25.8188C33.4284 25.8096 33.4176 25.888 33.4141 26.035C33.4111 26.1618 33.4188 26.2719 33.4313 26.2796C33.4438 26.2873 33.4558 26.3689 33.4581 26.4608C33.4603 26.5528 33.4742 26.6436 33.489 26.6626C33.5096 26.689 33.5089 26.693 33.4861 26.6793C33.4624 26.665 33.4563 27.2905 33.4563 29.7358C33.4564 31.4268 33.4475 32.8287 33.4366 32.8511C33.4258 32.8736 33.4188 32.9154 33.421 32.944C33.4239 32.9789 33.4145 32.9918 33.3926 32.9834C33.3747 32.9765 33.36 32.9828 33.36 32.9974C33.36 33.0121 33.3735 33.0248 33.39 33.0259C33.4138 33.0274 33.4138 33.0303 33.3898 33.04C33.3732 33.0466 33.3668 33.0637 33.3755 33.0778C33.3849 33.0929 33.3801 33.0964 33.3639 33.0864C33.3352 33.0687 33.216 33.1717 33.216 33.2141C33.216 33.2275 33.1992 33.2321 33.1788 33.2242C33.138 33.2086 33.0676 33.2855 33.0898 33.3214C33.0973 33.3335 33.0907 33.3356 33.0753 33.326C33.0598 33.3165 33.0534 33.2986 33.061 33.2863C33.0686 33.2741 33.0643 33.264 33.0514 33.264C33.0385 33.264 33.0241 33.2754 33.0195 33.2893C33.0137 33.3068 32.5455 33.314 31.5157 33.3127C30.3091 33.3111 30.0237 33.3166 30.0376 33.3413C30.0516 33.3659 30.0486 33.3661 30.0227 33.342C30.0049 33.3255 29.9655 33.312 29.9352 33.312C29.9048 33.312 29.88 33.2999 29.88 33.2852C29.88 33.2698 29.8553 33.2631 29.8222 33.2695C29.7807 33.2774 29.7679 33.2714 29.7767 33.2483C29.7847 33.2275 29.771 33.216 29.7385 33.216C29.7107 33.216 29.688 33.2052 29.688 33.192C29.688 33.1788 29.6711 33.168 29.6505 33.168C29.6299 33.168 29.6198 33.1572 29.628 33.144C29.6361 33.1308 29.6314 33.12 29.6174 33.12C29.6034 33.12 29.592 33.0997 29.592 33.0748C29.592 33.0498 29.5705 33.024 29.544 33.017C29.5147 33.0094 29.496 32.9843 29.496 32.9528C29.496 32.9244 29.4852 32.9078 29.472 32.916C29.4588 32.9242 29.448 32.9134 29.448 32.892C29.448 32.8687 29.4591 32.86 29.4757 32.8703C29.4955 32.8826 29.4991 32.8658 29.4882 32.8114C29.4799 32.7695 29.4723 31.2774 29.4714 29.4956C29.4702 26.9865 29.4633 26.2559 29.4409 26.2556C29.4228 26.2554 29.4209 26.2487 29.436 26.2376C29.469 26.2133 29.4772 26.16 29.448 26.16C29.4348 26.16 29.424 26.1726 29.424 26.188C29.424 26.2034 29.417 26.2091 29.4085 26.2006C29.4001 26.1921 29.4057 26.1701 29.421 26.1516C29.4363 26.1332 29.4431 26.1032 29.4361 26.0851C29.4292 26.0669 29.419 25.9926 29.4136 25.92C29.408 25.8455 29.3928 25.7905 29.3787 25.7937C29.3649 25.7969 29.3599 25.7832 29.3675 25.7634C29.3751 25.7436 29.3671 25.7102 29.3497 25.6893C29.3323 25.6683 29.3156 25.6333 29.3125 25.6116C29.308 25.5794 29.3134 25.5807 29.3415 25.6186C29.3808 25.6716 29.3877 25.6507 29.3526 25.5851C29.3397 25.561 29.3266 25.5077 29.3235 25.4667C29.3203 25.4256 29.3092 25.392 29.2989 25.392C29.2885 25.392 29.28 25.365 29.28 25.332C29.28 25.299 29.2692 25.272 29.256 25.272C29.2428 25.272 29.232 25.2461 29.232 25.2146C29.232 25.1656 29.1789 25.1153 29.135 25.1225C29.1279 25.1237 29.1258 25.0849 29.1305 25.0363C29.137 24.9694 29.133 24.9567 29.1139 24.984C29.0884 25.0205 29.0753 24.9779 29.0862 24.894C29.0883 24.8775 29.0788 24.864 29.065 24.864C29.0512 24.864 29.04 24.8435 29.04 24.8186C29.04 24.766 28.9773 24.7328 28.9582 24.7753C28.9503 24.7929 28.9462 24.7901 28.9475 24.768C28.9529 24.6773 28.9392 24.6479 28.8733 24.6089C28.8344 24.586 28.8076 24.5591 28.8136 24.5492C28.8198 24.5394 28.8138 24.5245 28.8004 24.5162C28.7869 24.508 28.776 24.5132 28.776 24.528C28.776 24.5428 28.7656 24.5485 28.753 24.5407C28.7404 24.5329 28.7361 24.5106 28.7436 24.4912C28.7523 24.4684 28.7421 24.456 28.7145 24.456C28.6911 24.456 28.6786 24.4493 28.6868 24.4411C28.7044 24.4236 28.6432 24.3572 28.6152 24.3634C28.5802 24.3711 28.512 24.3314 28.512 24.3033C28.512 24.2659 28.3762 24.2081 28.3404 24.2302C28.3207 24.2423 28.3167 24.235 28.3276 24.2067C28.3363 24.184 28.3336 24.1715 28.3216 24.179C28.3096 24.1864 28.2852 24.1778 28.2674 24.16C28.2496 24.1421 28.2156 24.1304 28.192 24.1339C28.1683 24.1373 28.1431 24.1249 28.1359 24.1061C28.1284 24.0865 28.0903 24.072 28.0462 24.072C28.0041 24.072 27.9578 24.0602 27.9434 24.0458C27.928 24.0305 27.853 24.023 27.7616 24.0278C27.6444 24.034 27.6088 24.0286 27.6175 24.006C27.6239 23.9895 27.6117 23.976 27.5905 23.976C27.5693 23.976 27.5518 23.9895 27.5516 24.006C27.5514 24.0259 27.5452 24.0274 27.5336 24.0106C27.5089 23.9751 27.332 23.9734 27.3518 24.0088C27.3606 24.0245 27.3533 24.0233 27.3347 24.006C27.291 23.9655 27.1401 23.968 27.0825 24.0101C27.0547 24.0305 27.0088 24.0389 26.9685 24.0308C26.9314 24.0235 26.8774 24.0295 26.8485 24.0442C26.8196 24.0589 26.769 24.0749 26.736 24.0798C26.6476 24.0928 26.5904 24.122 26.6055 24.1465C26.6128 24.1583 26.6074 24.168 26.5934 24.168C26.5794 24.168 26.568 24.1572 26.568 24.144C26.568 24.1308 26.5565 24.12 26.5425 24.12C26.5285 24.12 26.5238 24.1308 26.532 24.144C26.5404 24.1577 26.5179 24.1688 26.4794 24.1699C26.4423 24.1709 26.4255 24.1772 26.442 24.1839C26.4585 24.1906 26.472 24.2071 26.472 24.2206C26.472 24.2341 26.4558 24.2389 26.436 24.2313C26.4162 24.2237 26.3998 24.2306 26.3996 24.2468C26.3994 24.2659 26.3916 24.264 26.3773 24.2413C26.3591 24.2126 26.3464 24.2167 26.3038 24.2653C26.2755 24.2976 26.2606 24.3078 26.2707 24.288C26.2912 24.2481 26.235 24.2846 26.16 24.3601C26.1402 24.38 26.0943 24.4116 26.058 24.4302C26.0217 24.4489 25.992 24.4803 25.992 24.5C25.992 24.5198 25.9849 24.529 25.9762 24.5203C25.9563 24.5003 25.824 24.6374 25.824 24.678C25.824 24.6947 25.8019 24.7222 25.775 24.739C25.7481 24.7558 25.7336 24.7817 25.7427 24.7965C25.7526 24.8125 25.7486 24.8167 25.7329 24.8071C25.7039 24.7891 25.6483 24.8723 25.6728 24.8968C25.6812 24.9052 25.6699 24.912 25.648 24.912C25.6119 24.912 25.5946 24.957 25.6068 25.0191C25.6093 25.0318 25.5918 25.0565 25.5678 25.0741C25.53 25.1017 25.529 25.1089 25.5601 25.1286C25.5899 25.1474 25.5882 25.1513 25.5499 25.1516C25.5247 25.1518 25.5111 25.1591 25.5198 25.1678C25.5285 25.1765 25.5236 25.198 25.5091 25.2155C25.4945 25.2331 25.4886 25.2632 25.4961 25.2825C25.5051 25.306 25.4981 25.3132 25.4748 25.3042C25.4539 25.2962 25.44 25.3052 25.44 25.3267C25.44 25.3464 25.4241 25.3932 25.4046 25.4307C25.3816 25.4749 25.3774 25.5071 25.3926 25.5223C25.4234 25.553 25.4224 25.584 25.3905 25.584C25.3765 25.584 25.3718 25.5732 25.38 25.56C25.3881 25.5468 25.3821 25.536 25.3666 25.536C25.3489 25.536 25.3425 25.5631 25.3492 25.609C25.3567 25.6601 25.3511 25.6787 25.3305 25.6708C25.3107 25.6631 25.3026 25.6826 25.3059 25.7297C25.3089 25.7741 25.2991 25.8 25.2793 25.8C25.2621 25.8 25.248 25.8115 25.248 25.8254C25.248 25.8394 25.2588 25.8442 25.272 25.836C25.2852 25.8278 25.296 25.8326 25.296 25.8466C25.296 25.8605 25.2852 25.872 25.272 25.872C25.2588 25.872 25.248 25.9044 25.248 25.944C25.248 25.9836 25.2384 26.016 25.2266 26.016C25.2149 26.016 25.2072 26.0761 25.2096 26.1497C25.212 26.2232 25.2038 26.2897 25.1913 26.2973C25.1788 26.3051 25.1763 26.299 25.1857 26.2837C25.1951 26.2685 25.1914 26.256 25.1774 26.256C25.1634 26.256 25.152 26.2776 25.152 26.304C25.152 26.3304 25.1655 26.3522 25.182 26.3524C25.2016 26.3526 25.2033 26.3588 25.1868 26.3704C25.173 26.3801 25.1592 26.4251 25.1561 26.4704C25.153 26.5157 25.1403 26.5651 25.1278 26.5802C25.0901 26.6256 25.096 32.7599 25.1337 32.7604C25.1524 32.7606 25.1548 32.7675 25.14 32.7784C25.1017 32.8065 25.0947 32.9365 25.1327 32.9136C25.1563 32.8994 25.1559 32.9047 25.131 32.9354C25.0937 32.9814 25.0683 32.9903 25.0942 32.9483C25.1052 32.9306 25.1008 32.9271 25.0821 32.9387C25.0659 32.9487 25.0585 32.972 25.0656 32.9904C25.0731 33.0101 25.0633 33.024 25.0418 33.024C25.0216 33.024 25.0113 33.0339 25.0188 33.0461C25.0263 33.0582 25.0157 33.0848 24.9953 33.1052C24.975 33.1256 24.9576 33.1508 24.9567 33.1612C24.9559 33.1715 24.9441 33.1768 24.9306 33.173C24.8995 33.1642 24.8134 33.2404 24.8279 33.2639C24.8338 33.2735 24.8147 33.2798 24.7854 33.278C24.756 33.2761 24.7257 33.2833 24.7181 33.294C24.696 33.325 21.6955 33.3175 21.6579 33.2863C21.6405 33.2719 21.6069 33.2639 21.5831 33.2687C21.5367 33.278 21.3761 33.1282 21.3967 33.0948C21.4033 33.0842 21.3869 33.0686 21.3603 33.0601C21.3309 33.0508 21.312 33.0238 21.312 32.9912C21.312 32.9617 21.3012 32.9268 21.2879 32.9135C21.2491 32.8747 21.2549 21.2921 21.2938 21.2441C21.3189 21.2131 21.3179 21.2099 21.288 21.2252C21.2682 21.2354 21.2747 21.2235 21.3024 21.1988C21.3822 21.128 21.4108 21.0608 21.3768 21.0241C21.3537 20.9992 21.3568 20.996 21.3923 21.0086C21.4324 21.0228 21.4665 21.0035 21.6096 20.8858C21.6214 20.876 22.3162 20.8711 23.1535 20.8748C24.1017 20.8791 24.6706 20.8732 24.6619 20.8591C24.6542 20.8466 24.6748 20.849 24.7077 20.8642C24.7407 20.8795 24.7677 20.8991 24.7678 20.9078C24.7679 20.9164 24.7912 20.9174 24.8197 20.91C24.8554 20.9006 24.8661 20.9051 24.8542 20.9244C24.8437 20.9413 24.8589 20.9612 24.8924 20.9747C24.9229 20.9869 24.9391 20.9977 24.9282 20.9985C24.9174 20.9993 24.9254 21.0169 24.946 21.0376C24.9667 21.0582 24.9929 21.0693 25.0043 21.0623C25.0157 21.0552 25.0199 21.0761 25.0137 21.1087C25.0071 21.1432 25.0136 21.168 25.0291 21.168C25.0439 21.168 25.056 21.1846 25.056 21.2048C25.056 21.2249 25.0695 21.2467 25.086 21.253C25.1091 21.2618 25.1143 21.391 25.1087 21.8132L25.1015 22.362L25.1687 22.3625C25.2484 22.3632 25.344 22.2832 25.344 22.2158C25.344 22.1895 25.3508 22.1749 25.3591 22.1832C25.3765 22.2005 25.4577 22.1047 25.4687 22.0538C25.4727 22.0352 25.5165 21.9799 25.566 21.931C25.6155 21.882 25.6568 21.8226 25.6579 21.799C25.659 21.7742 25.6648 21.7686 25.6718 21.7858C25.6861 21.8213 25.7325 21.7829 25.7586 21.714C25.7673 21.6909 25.791 21.672 25.8112 21.672C25.8314 21.672 25.848 21.6629 25.848 21.6517C25.848 21.6106 25.939 21.525 25.9494 21.5563C25.9561 21.5766 25.9827 21.5649 26.0298 21.5207C26.1481 21.4097 26.1704 21.3923 26.2155 21.3761C26.2419 21.3665 26.2522 21.3485 26.2416 21.3302C26.2321 21.3136 26.2327 21.3076 26.2431 21.317C26.2927 21.3617 26.5256 21.1914 26.5051 21.1253C26.4933 21.0871 26.4943 21.0871 26.5193 21.1259C26.5446 21.1652 26.5504 21.1647 26.6151 21.1169C26.6529 21.0889 26.712 21.066 26.7463 21.066C26.7807 21.066 26.8147 21.0565 26.8218 21.045C26.829 21.0335 26.8549 21.024 26.8794 21.024C26.9062 21.024 26.9336 20.9977 26.9481 20.958C26.9632 20.9164 26.9729 20.9075 26.974 20.934C26.9764 20.9847 26.9968 20.986 27.0587 20.9391C27.0847 20.9194 27.1262 20.9104 27.1524 20.9186C27.1866 20.9295 27.1957 20.9243 27.1861 20.8993C27.1759 20.8727 27.1933 20.8667 27.2652 20.8724C27.3164 20.8765 27.3649 20.8675 27.3744 20.8522C27.3856 20.834 27.3807 20.8312 27.36 20.844C27.3395 20.8567 27.3343 20.854 27.3452 20.8365C27.3551 20.8204 27.3915 20.8155 27.4353 20.8243C27.483 20.8338 27.5155 20.8282 27.5278 20.8083C27.5395 20.7893 27.5955 20.7781 27.6754 20.779C27.7669 20.7799 27.7902 20.7744 27.756 20.7598C27.6999 20.7359 27.7319 20.7291 27.87 20.7355C27.9208 20.7379 27.96 20.7284 27.96 20.7139C27.96 20.6996 27.9714 20.688 27.9854 20.688C27.9994 20.688 28.0041 20.6988 27.996 20.712C27.9878 20.7252 27.9979 20.736 28.0185 20.736C28.0391 20.736 28.0568 20.7225 28.0579 20.706C28.0593 20.683 28.0627 20.6833 28.0722 20.707C28.0818 20.731 28.0924 20.7316 28.1186 20.7098C28.1395 20.6924 28.2399 20.6819 28.3803 20.6825C28.5055 20.683 28.608 20.6754 28.608 20.6657C28.608 20.656 28.6237 20.648 28.6429 20.648C28.6621 20.648 28.6727 20.6563 28.6664 20.6665ZM17.4662 20.8796C18.4483 20.879 18.9525 20.8869 18.9689 20.9033C19.0035 20.938 19.0383 20.9341 19.0175 20.898C19.0002 20.8679 19.1259 20.9694 19.1551 21.0091C19.1636 21.0206 19.1825 21.0228 19.197 21.0138C19.2131 21.0039 19.2183 21.0109 19.2103 21.0316C19.2023 21.0525 19.2163 21.0707 19.2466 21.0786C19.2772 21.0866 19.296 21.1112 19.296 21.1435C19.296 21.1993 19.3526 21.2714 19.3771 21.2468C19.3853 21.2387 19.392 21.2635 19.392 21.302C19.392 21.3405 19.3947 23.9491 19.398 27.0989C19.4028 31.6557 19.3978 32.8316 19.374 32.8538C19.3575 32.8693 19.344 32.9024 19.344 32.9276C19.344 32.9527 19.3197 32.9914 19.29 33.0136C19.242 33.0494 19.2414 33.0522 19.284 33.0388C19.3221 33.0269 19.3183 33.0359 19.266 33.0827C19.2297 33.1151 19.2 33.1537 19.2 33.1682C19.2 33.1829 19.1892 33.1882 19.176 33.18C19.1395 33.1575 19.0623 33.2225 19.0694 33.2697C19.0744 33.3032 19.067 33.3068 19.0314 33.2877C18.9744 33.2572 18.9367 33.2575 18.984 33.288C19.0038 33.3008 19.0092 33.3115 18.996 33.3119C18.1847 33.333 15.96 33.3179 15.96 33.2912C15.96 33.269 15.9402 33.2622 15.8992 33.27C15.8551 33.2785 15.8262 33.2661 15.7938 33.2248C15.7692 33.1936 15.7353 33.168 15.7185 33.168C15.7017 33.168 15.6948 33.1612 15.7031 33.1528C15.7114 33.1445 15.6862 33.1078 15.6471 33.0712C15.608 33.0347 15.576 32.9884 15.576 32.9684C15.576 32.9483 15.5651 32.9284 15.5518 32.924C15.5184 32.9128 15.5184 21.2792 15.5518 21.268C15.5651 21.2636 15.576 21.2393 15.576 21.214C15.576 21.1887 15.5868 21.168 15.6 21.168C15.6132 21.168 15.624 21.1565 15.624 21.1426C15.624 21.1286 15.6121 21.1245 15.5976 21.1335C15.579 21.145 15.5793 21.1346 15.5984 21.0989C15.6134 21.0709 15.6475 21.048 15.6742 21.048C15.7009 21.048 15.7163 21.0375 15.7084 21.0247C15.7005 21.0119 15.7215 20.9945 15.755 20.9861C15.7885 20.9777 15.816 20.9612 15.816 20.9494C15.816 20.9376 15.8376 20.928 15.864 20.928C15.8914 20.928 15.912 20.912 15.912 20.8906C15.912 20.87 15.9228 20.8598 15.936 20.868C15.9492 20.8762 15.9608 20.8687 15.9619 20.8514C15.9633 20.8268 15.9664 20.8266 15.976 20.8503C15.9856 20.8743 16.2972 20.8804 17.4662 20.8796Z" fill="white"/>
<path fill-rule="evenodd" clip-rule="evenodd" d="M35.1769 12.4553C35.1992 12.4813 35.2222 12.4978 35.2281 12.4919C35.2424 12.4776 35.1836 12.408 35.1572 12.408C35.1458 12.408 35.1546 12.4293 35.1769 12.4553ZM12.6295 12.5653C12.6003 12.5857 12.5641 12.6262 12.5492 12.6553C12.5248 12.7027 12.5277 12.702 12.5784 12.648C12.6094 12.615 12.6512 12.5749 12.6714 12.5588C12.7244 12.5164 12.6921 12.5214 12.6295 12.5653ZM17.7868 14.6863C17.7627 14.7012 17.7641 14.7085 17.7932 14.7196C17.8137 14.7275 17.8363 14.7243 17.8436 14.7126C17.8625 14.682 17.8232 14.6638 17.7868 14.6863ZM19.5607 15.871C19.5589 15.9163 19.6507 15.988 19.6693 15.9558C19.6794 15.9384 19.6792 15.9316 19.6688 15.941C19.6585 15.9504 19.6301 15.9342 19.6058 15.905C19.5814 15.8758 19.5612 15.8606 19.5607 15.871ZM15.12 16.212C15.12 16.2318 15.1308 16.248 15.144 16.248C15.1572 16.248 15.168 16.2318 15.168 16.212C15.168 16.1922 15.1572 16.176 15.144 16.176C15.1308 16.176 15.12 16.1922 15.12 16.212ZM17.0286 19.6883C17.0977 19.7353 17.176 19.7505 17.176 19.7168C17.176 19.7002 17.1537 19.6925 17.1228 19.6984C17.0935 19.704 17.0623 19.6967 17.0533 19.6823C17.0445 19.6678 17.0245 19.656 17.0092 19.656C16.9938 19.656 17.0026 19.6705 17.0286 19.6883ZM24.8073 20.94C24.8149 20.9598 24.8289 20.976 24.8385 20.976C24.8481 20.976 24.856 20.9598 24.856 20.94C24.856 20.9202 24.8419 20.904 24.8247 20.904C24.8068 20.904 24.7993 20.9194 24.8073 20.94ZM26.676 21.0849C26.6157 21.1139 26.6137 21.1172 26.664 21.1051C26.697 21.0972 26.7342 21.081 26.7468 21.0693C26.7778 21.0403 26.7608 21.044 26.676 21.0849ZM25.1246 22.3706C25.1024 22.3846 25.1169 22.3914 25.17 22.3917C25.2129 22.3918 25.248 22.3879 25.248 22.3828C25.248 22.361 25.1544 22.3517 25.1246 22.3706ZM21.48 33.2201C21.5401 33.2787 21.5706 33.2895 21.541 33.2417C21.5323 33.2277 21.5016 33.2039 21.4726 33.1889C21.4249 33.1642 21.4256 33.1671 21.48 33.2201ZM12.408 35.1573C12.408 35.1837 12.4775 35.2424 12.4918 35.2282C12.4977 35.2223 12.4812 35.1992 12.4552 35.177C12.4293 35.1547 12.408 35.1458 12.408 35.1573Z" fill="white"/>
</g>
<defs>
<clipPath id="clip0_61385_209">
<rect width="24" height="24" fill="white" transform="translate(12 12)"/>
</clipPath>
</defs>
</svg>
